<svg id="Layer_1" height="512" viewBox="0 0 512 512" width="512" xmlns="http://www.w3.org/2000/svg" data-name="Layer 1"><rect fill="#f5f5f5" height="284.703" rx="46.726" width="512" y="113.648"/><g fill="#ff4b55" fill-rule="evenodd"><path d="m279.5 113.648h-47v118.852h-232.5v47h232.5v118.852h47v-118.852h232.5v-47h-232.5z"/><path d="m128.888 209.345a99.822 99.822 0 0 0 -24.93-.173 219.623 219.623 0 0 0 2.908-26.712 184.849 184.849 0 0 0 -26.886 3.252 99.87 99.87 0 0 0 .172-24.93 219.84 219.84 0 0 0 26.7 2.908 187.165 187.165 0 0 0 -3.242-26.886 52 52 0 0 0 25.277 0 204.107 204.107 0 0 0 -3.208 26.872 187.1 187.1 0 0 0 26.839-3.24 52 52 0 0 0 0 25.277 204.278 204.278 0 0 0 -26.882-3.209 184.928 184.928 0 0 0 3.252 26.841z"/><path d="m408.388 209.345a99.822 99.822 0 0 0 -24.93-.173 219.623 219.623 0 0 0 2.908-26.712 184.849 184.849 0 0 0 -26.886 3.252 99.917 99.917 0 0 0 .173-24.93 219.8 219.8 0 0 0 26.7 2.908 187.165 187.165 0 0 0 -3.242-26.886 52 52 0 0 0 25.277 0 204.107 204.107 0 0 0 -3.208 26.872 187.1 187.1 0 0 0 26.839-3.24 52 52 0 0 0 0 25.277 204.258 204.258 0 0 0 -26.882-3.209 184.928 184.928 0 0 0 3.251 26.841z"/><path d="m408.388 375.2a99.918 99.918 0 0 0 -24.93-.173 219.58 219.58 0 0 0 2.908-26.712 184.988 184.988 0 0 0 -26.886 3.253 99.918 99.918 0 0 0 .173-24.93 219.8 219.8 0 0 0 26.7 2.908 187.179 187.179 0 0 0 -3.242-26.887 51.979 51.979 0 0 0 25.277 0 204.147 204.147 0 0 0 -3.208 26.872 186.957 186.957 0 0 0 26.839-3.24 52 52 0 0 0 0 25.277 204.086 204.086 0 0 0 -26.882-3.208 184.914 184.914 0 0 0 3.251 26.84z"/><path d="m128.888 375.2a99.918 99.918 0 0 0 -24.93-.173 219.58 219.58 0 0 0 2.908-26.712 184.988 184.988 0 0 0 -26.886 3.253 99.871 99.871 0 0 0 .172-24.93 219.84 219.84 0 0 0 26.7 2.908 187.179 187.179 0 0 0 -3.242-26.887 51.979 51.979 0 0 0 25.277 0 204.147 204.147 0 0 0 -3.208 26.872 186.957 186.957 0 0 0 26.839-3.24 52 52 0 0 0 0 25.277 204.106 204.106 0 0 0 -26.882-3.208 184.914 184.914 0 0 0 3.252 26.84z"/></g></svg>