<svg height="512" viewBox="0 0 61 61" width="512" xmlns="http://www.w3.org/2000/svg"><g id="Page-1" fill="none" fill-rule="evenodd"><g id="003---Inspect-Antique" fill="rgb(255,255,255)" fill-rule="nonzero"><path id="Shape" d="m16 54h-3.335c-.644-.825-1.258-1.681-1.83-2.55-.3077596-.4507803-.92013178-.571508-1.37595367-.271266-.45582188.3002419-.58668805.9105278-.29404633 1.371266.692 1.052 1.444 2.087 2.234 3.075.1898615.2371369.4772217.375114.781.375h3.82c.5522847 0 1-.4477153 1-1s-.4477153-1-1-1z"/><path id="Shape" d="m26.515 43.485c3.4319134 3.432141 8.5933897 4.4589559 13.0775801 2.6016305 4.4841904-1.8573253 7.4079826-6.2330111 7.4079826-11.0866305s-2.9237922-9.2293052-7.4079826-11.0866305c-4.4841904-1.8573254-9.6456667-.8305105-13.0775801 2.6016305-2.2603631 2.2450406-3.5315178 5.2991801-3.5315178 8.485s1.2711547 6.2399594 3.5315178 8.485zm1.414-15.556c2.8599649-2.8600197 7.1611582-3.7156124 10.8979256-2.1678137 3.7367675 1.5477988 6.17321 5.1941738 6.17321 9.2388137s-2.4364425 7.6910149-6.17321 9.2388137c-3.7367674 1.5477987-8.0379607.692206-10.8979256-2.1678137-1.8839448-1.8707701-2.9434486-4.4159992-2.9434486-7.071s1.0595038-5.2002299 2.9434486-7.071z"/><path id="Shape" d="m29.343 40.657c.2510745.2599566.6228779.3642126.9725073.2726972.3496295-.0915155.6226744-.3645604.7141899-.7141899.0915154-.3496294-.0127406-.7214328-.2726972-.9725073-2.0167582-2.0254794-2.3302253-5.1902426-.75-7.572.2945253-.459119.1667863-1.0695686-.2871125-1.3720769-.4538989-.3025083-1.0664887-.185463-1.3768875.2630769-2.1066815 3.1753975-1.6887287 7.3946307 1 10.095z"/><path id="Shape" d="m48.781 43.093c3.2016193-5.4350102 2.9057453-12.2449889-.755191-17.3818408-3.6609364-5.1368519-10.0015417-7.6388658-16.183809-6.3861592-1.3894006-1.6511873-2.4519601-3.551645-3.131-5.6-.5764404-2.2736377-.2552147-4.68193532.897-6.725h.892c1.9329966-.00000003 3.4999999-1.5670034 3.4999999-3.5s-1.5670033-3.49999997-3.4999999-3.5h-21c-1.93299662 0-3.5 1.56700338-3.5 3.5s1.56700338 3.5 3.5 3.5h.892c1.1539518 2.04314758 1.4762792 4.4523662.9 6.727-.818 2.88-2.888 5.36-4.89 7.758l-.73.879c-2.26423266 2.6798849-3.92090739 5.8185603-4.856 9.2-.06030979.1229723-.09436525.2571508-.1.394-.94081651 3.9450878-.86926756 8.0639682.208 11.974 0 .024-.014.044-.014.068.00512532.1869135.06377998.3684306.169.523 1.62644887 5.2965344 4.30907115 10.2086654 7.886 14.44.55158283.6580032 1.3663899 1.0377582 2.225 1.037h17.62c.8591231.0008067 1.6743839-.3793554 2.226-1.038 2.0786089-2.4766275 3.8824891-5.1713832 5.38-8.037 2.3715915-.2119411 4.6656715-.952033 6.714-2.166l10.163 10.068c.9992 1.0636502 2.4983721 1.4987143 3.9117399 1.1351984 1.4133679-.363516 2.516593-1.4679125 2.8786089-2.8816654.3620159-1.4137528-.0746388-2.9124623-1.1393488-3.910533zm-3.881-17.993c4.7345311 4.7231691 5.4723647 12.1334286 1.7621198 17.6974373-3.710245 5.5640087-10.8347554 7.7314255-17.0150015 5.1762995s-9.69418-9.120841-8.392098-15.680467 7.057371-11.2854056 13.7449797-11.2862698c3.7118243-.0005892 7.27227 1.4714213 9.9 4.093zm-37.689-1.464.723-.869c2.135-2.559 4.344-5.2 5.277-8.492.6495227-2.4221786.4334335-4.99509039-.611-7.275h1.4c.5522847 0 1-.44771525 1-1s-.4477153-1-1-1h-4.5c-.53589839.00000001-1.03108893-.28589838-1.29903812-.74999999-.2679492-.46410162-.2679492-1.0358984 0-1.50000002.26794919-.46410161.76313973-.75 1.29903812-.74999999h21c.5358984-.00000001 1.0310889.28589838 1.2990381.74999999.2679492.46410162.2679492 1.0358984 0 1.50000002-.2679492.46410161-.7631397.75-1.2990381.74999999h-11.5c-.5522847 0-1 .44771525-1 1s.4477153 1 1 1h8.4c-1.0445335 2.27946654-1.2613172 4.8518723-.613 7.274.6449357 2.0405116 1.6553544 3.9468213 2.982 5.626-5.0714079 1.7290214-8.924183 5.9057773-10.239 11.1h-5.53c-.5522847 0-.9999999.4477153-.9999999 1s.4477152 1 .9999999 1h5.148c-.4358989 3.4639674.272025 6.9754951 2.016 10h-18.496c-.83287369-3.2744139-.8955126-6.6973055-.183-10h6.515c.55228475 0 1-.4477153 1-1s-.44771525-1-1-1h-5.955c.92308205-2.6903826 2.33547146-5.1869827 4.166-7.364zm22.294 34.04c-.1723436.208283-.4296806.3273932-.7.324h-17.615c-.2680906.0019689-.522881-.1166152-.694-.323-3.19083676-3.7359441-5.6551628-8.035457-7.266-12.677h19.287c2.8346901 3.5613432 7.0656133 5.7296367 11.612 5.951-1.3260144 2.382343-2.8742325 4.6340227-4.624 6.725zm28.022-.257c-.7942447.750628-2.0375508.7466699-2.827-.009l-9.885-9.793c.5243224-.4021213 1.0232747-.8362833 1.494-1.3.476004-.4816481.9205856-.9933678 1.331-1.532l9.892 9.809c.3785407.3739104.5908477.8843179.589155 1.4163886s-.2172429 1.0411171-.598155 1.4126114z"/><circle id="Oval" cx="33" cy="28" r="1"/></g></g></svg>