<svg height="512" viewBox="0 0 60 60" width="512" xmlns="http://www.w3.org/2000/svg"><g id="Page-1" fill="none" fill-rule="evenodd"><g id="014---Geographical-Mapping" fill="rgb(255,255,255)" fill-rule="nonzero"><path id="Shape" d="m21 20c0-3.3137085-2.6862915-6-6-6s-6 2.6862915-6 6 2.6862915 6 6 6c3.3123376-.0033074 5.9966926-2.6876624 6-6zm-10 0c0-2.209139 1.790861-4 4-4s4 1.790861 4 4-1.790861 4-4 4c-1.060866 0-2.0782816-.4214274-2.8284271-1.1715729s-1.1715729-1.7675611-1.1715729-2.8284271z"/><path id="Shape" d="m58 13h-32v-1c-.0052514-1.2667854-.8056491-2.39374545-2-2.816v-3.184c-.0033074-3.31233757-2.6876624-5.99669262-6-6h-6c-3.31233757.00330738-5.99669262 2.68766243-6 6v3.184c-1.19435087.42225455-1.99474861 1.5492146-2 2.816v19c0 1.6568542 1.34314575 3 3 3h1.2l-8.081 23.336c-.21506914.6110471-.12086711 1.2884159.25277331 1.8175908.37364042.529175.9804381.8446096 1.62822669.8464092h2.12c.85459257.0022601 1.61698205-.5366289 1.9-1.343l5.98-17.284v11.627c0 1.1045695.8954305 2 2 2h2c1.1045695 0 2-.8954305 2-2v-11.626l5.986 17.287c.2838863.8034042 1.0439153 1.3401546 1.896 1.339h2.118c.6467537-.0012956 1.2529587-.3152615 1.6271853-.8427522.3742266-.5274908.470275-1.2033856.2578147-1.8142478l-3.925-11.343h6.091c.5327415 7.5182797 6.9249992 13.2635682 14.4573103 12.9940662 7.5323112-.269502 13.4976225-6.4569376 13.4916897-13.9940662 0-.246-.024-.485-.037-.728.0190341-.0896284.0314013-.180544.037-.272v-29c0-1.1045695-.8954305-2-2-2zm-16 6v2.46c.003024.672388.3404195 1.2991939.9 1.672l11.1 7.4v2.992c-2.3434205-1.6444816-5.1371455-2.5259019-8-2.524-.274 0-.542.026-.812.041l-5.351-3.677c-.3349796-.2380563-.7360494-.3653357-1.147-.364h-6.69v-8zm12 0v9.131l-10-6.671v-2.46zm-20 18.826c-.4160573.6925189-.7710631 1.4199293-1.061 2.174h-3.939v-4h5zm2-8.826h2.693l3.638 2.5c-2.4038349.6549031-4.5893568 1.9394279-6.331 3.721zm-4 0h2v5h-5c-1.1045695 0-2 .8954305-2 2v4h-3.117l-2.077-6h1.194c1.6568542 0 3-1.3431458 3-3v-12h4v8c0 1.1045695.8954305 2 2 2zm-20-27h6c2.209139 0 4 1.790861 4 4v3h-2v-3c0-1.1045695-.8954305-2-2-2h-6c-1.1045695 0-2 .8954305-2 2v3h-2v-3c0-2.209139 1.790861-4 4-4zm6 7h-6v-3h6zm-12 22v-1h5c.5522847 0 1-.4477153 1-1s-.4477153-1-1-1h-5v-16c0-.5522847.44771525-1 1-1h16c.5522847 0 1 .4477153 1 1v1.99.01.01 3.98.01.01 9.99h-5c-.5522847 0-1 .4477153-1 1s.4477153 1 1 1h5v1c0 .5522847-.4477153 1-1 1h-16c-.55228475 0-1-.4477153-1-1zm-1.878 27h-2.115l8.306-24h1.687v1.262zm9.878-5v-19h2v19zm11.874 5-7.874-22.738v-1.262h1.69l2.558 7.385v.006l1.37 3.956c.008.02.012.041.021.061l4.361 12.592zm-1.3-16h7.756c-.1421896.6589442-.2361057 1.3273858-.281 2h-6.781zm21.426 15c-6.627417 0-12-5.372583-12-12s5.372583-12 12-12 12 5.372583 12 12c-.0071648 6.624447-5.375553 11.9928352-12 12zm10-21.779v-17.221c0-.5522847-.4477153-1-1-1h-29v-2h32l.007 22.837c-.5640618-.9477124-1.2376946-1.8257509-2.007-2.616z"/><path id="Shape" d="m51.737 38.035-9.429 2.571c-.3399382.0944418-.6055582.3600618-.7.7l-2.571 9.429c-.0826262.3006488-.0202904.6226327.1685711.8707218.1888614.248089.482633.393889.7944289.3942782.0888105-.0002572.1772132-.0120218.263-.035l9.429-2.571c.3399382-.0944418.6055582-.3600618.7-.7l2.571-9.429c.094496-.3462545-.0038196-.7165946-.2576125-.9703875s-.624133-.3521085-.9703875-.2576125zm-8.654 5.465 4.42 4.42-6.078 1.658zm5.834 3-4.42-4.42 6.078-1.658z"/></g></g></svg>