<svg height="512" viewBox="0 0 60 60" width="512" xmlns="http://www.w3.org/2000/svg"><g id="Page-1" fill="none" fill-rule="evenodd"><g id="021---Drilling-Earth" fill="rgb(255,255,255)" fill-rule="nonzero"><path id="Shape" d="m58 8h-18c-1.1045695 0-2 .8954305-2 2v17.9c0 6.514 0 12.14-3.749 17.718-1.201 1.782-1.982 2.382-4.208 2.382h-.094c-2.218 0-3-.6-4.2-2.378-3.749-5.579-3.749-11.205-3.749-17.722v-17.9c0-1.1045695-.8954305-2-2-2h-18c-1.1045695 0-2 .8954305-2 2v48c0 1.1045695.8954305 2 2 2h56c1.1045695 0 2-.8954305 2-2v-48c0-1.1045695-.8954305-2-2-2zm0 25.093-6.474 8.861c-.451-.261-.893-.529-1.337-.8-.363-.225-.729-.451-1.1-.674l8.911-12.204zm0 3.391v7.453c-1.605192-.0833546-3.1836824-.4450708-4.665-1.069zm-18-8.207 5.256-7.2c.9064148.3339562 1.7798362.7514175 2.609 1.247l-7.945 10.888c.073-1.599.08-3.239.08-4.935zm-.435 8.814 10.016-13.724c.8117085.5137856 1.6528157.9795833 2.519 1.395l-9.77 13.365c-.9668079-.1014268-1.9392388-.1391749-2.911-.113.05-.306.101-.614.146-.923zm14.466-11.591c.9984192.3074886 2.0247128.5158289 3.064.622l-9.789 13.4c-.8942849-.4256364-1.8289488-.7606414-2.79-1zm-14.031-15.5h18v14.187c-2.8084303-.1863119-5.5094136-1.151394-7.8-2.787-2.971615-2.1219353-6.5493558-3.2268259-10.2-3.15zm3.184 10.526-3.184 4.359v-4.635c1.0675646-.0061608 2.1334192.0862312 3.184.276zm-35.267 18.811 9.792-13.409c.7575049.1341174 1.5226719.2206203 2.291.259v1.437l-9.55 13.067c-.81352129-.5067488-1.65970576-.9590716-2.533-1.354zm-5.917-8.33 6.771-9.271c.832.417 1.6.883 2.373 1.363l.115.071-9.259 12.659zm10.986-6.807c.846991.470219 1.7341589.8641069 2.651 1.177l-9.681 13.252c-1.02011037-.284544-2.06527937-.470069-3.121-.554zm7.03 6.795c.022 1.542.08 3.044.224 4.517l-5.5 7.531c-.894561-.3603332-1.7572625-.7951963-2.579-1.3zm.631 7.35c.3613048 1.9132329.9686819 3.7716657 1.807 5.529-.70496.083125-1.4141565.125196-2.124.126-1.1941164.0082037-2.3856467-.1121563-3.554-.359zm-18.647-28.345h18v14.187c-2.8084303-.1863119-5.5094136-1.151394-7.8-2.787-2.971615-2.1219353-6.54935583-3.2268259-10.2-3.15zm4.864 10.956-4.864 6.659v-7.365c1.648694-.0268924 3.2909875.2114833 4.864.706zm-4.864 37.044v-17.961c2.92030148.1278109 5.74072976 1.1004921 8.119 2.8l.019.012c2.9687263 2.1215548 6.5439356 3.2261795 10.192 3.149 1.0480236-.0019276 2.0941491-.0892162 3.128-.261.2.333.408.667.633 1 1.458 2.161 2.768 3.261 5.856 3.261h.053c3.122-.006 4.447-1.088 5.914-3.262 1.388963-2.0475904 2.4227838-4.3146939 3.058-6.706 3.6150001-.2959523 7.217486.7028479 10.164 2.818 2.6069178 1.8394818 5.6783937 2.9091621 8.864 3.087v12.063z"/><path id="Shape" d="m24.553 38.1c-.4420206.2638535-.6115104.8201704-.3916951 1.2856616s.7571075.6880499 1.2416951.5143384c.0748086.179615.1602946.3545941.256.524l2.605 4.558c.356217.6226715 1.0186365 1.0068716 1.736 1.0068716s1.379783-.3842001 1.736-1.0068716l2.605-4.558c.4298142-.7527539.6568845-1.6041816.659-2.471v-2.835l.447-.223c.4170042-.2039126.6370994-.669515.5299937-1.1211799-.1071057-.451665-.5128305-.7688633-.9769937-.7638201v-3.892l.447-.223c.4170042-.2039126.6370994-.669515.5299937-1.1211799-.1071057-.451665-.5128305-.7688633-.9769937-.7638201v-3.892l.447-.223c.4170042-.2039126.6370994-.669515.5299937-1.1211799-.1071057-.451665-.5128305-.7688633-.9769937-.7638201v-3.892l.447-.223c.4170042-.2039126.6370994-.669515.5299937-1.1211799-.1071057-.451665-.5128305-.7688633-.9769937-.7638201v-3.892l.447-.223c.4170042-.2039126.6370994-.669515.5299937-1.12117994-.1071057-.45166496-.5128305-.7688633-.9769937-.76382006v-3.892l.447-.223c.4162514-.20463105.6356456-.66994525.5286766-1.12127303-.106969-.45132777-.5118625-.76867984-.9756766-.76472697v-1.009c0-1.1045695-.8954305-2-2-2h-6c-1.1045695 0-2 .8954305-2 2v5.882l-.447.223c-.415452.20705992-.6337945.67279068-.5272238 1.12458366.1065707.45179297.510032.77085024.9742238.77041634v3.882l-.447.223c-.415452.2070599-.6337945.6727907-.5272238 1.1245837.1065707.4517929.510032.7708502.9742238.7704163v3.882l-.447.223c-.415452.2070599-.6337945.6727907-.5272238 1.1245837.1065707.4517929.510032.7708502.9742238.7704163v3.882l-.447.223c-.415452.2070599-.6337945.6727907-.5272238 1.1245837.1065707.4517929.510032.7708502.9742238.7704163v3.882l-.447.223c-.415452.2070599-.6337945.6727907-.5272238 1.1245837.1065707.4517929.510032.7708502.9742238.7704163v3.882zm8.447-.147c-.0018915.522631-.1397411 1.035776-.4 1.489l-2.6 4.558-2.6-4.558c-.0705082-.1393569-.1296989-.2841566-.177-.433l5.777-2.891zm-6-35.953h6v1.882l-6 3zm0 7.118 6-3v3.764l-6 3zm0 6 6-3v3.764l-6 3zm0 6 6-3v3.764l-6 3zm0 6 6-3v3.764l-6 3zm0 6 6-3v3.764l-6 3z"/><circle id="Oval" cx="5" cy="13" r="1"/><circle id="Oval" cx="8" cy="16" r="1"/><circle id="Oval" cx="11" cy="13" r="1"/><circle id="Oval" cx="14" cy="16" r="1"/><circle id="Oval" cx="17" cy="19" r="1"/><circle id="Oval" cx="17" cy="13" r="1"/><circle id="Oval" cx="43" cy="13" r="1"/><circle id="Oval" cx="46" cy="16" r="1"/><circle id="Oval" cx="49" cy="13" r="1"/><circle id="Oval" cx="52" cy="16" r="1"/><circle id="Oval" cx="55" cy="19" r="1"/><circle id="Oval" cx="55" cy="13" r="1"/><path id="Shape" d="m9 54h-4c-.55228475 0-1 .4477153-1 1s.44771525 1 1 1h4c.55228475 0 1-.4477153 1-1s-.44771525-1-1-1z"/><path id="Shape" d="m15 51h-4c-.5522847 0-1 .4477153-1 1s.4477153 1 1 1h4c.5522847 0 1-.4477153 1-1s-.4477153-1-1-1z"/><path id="Shape" d="m21 54h-4c-.5522847 0-1 .4477153-1 1s.4477153 1 1 1h4c.5522847 0 1-.4477153 1-1s-.4477153-1-1-1z"/><path id="Shape" d="m28 52c0-.5522847-.4477153-1-1-1h-4c-.5522847 0-1 .4477153-1 1s.4477153 1 1 1h4c.5522847 0 1-.4477153 1-1z"/><path id="Shape" d="m32 54h-4c-.5522847 0-1 .4477153-1 1s.4477153 1 1 1h4c.5522847 0 1-.4477153 1-1s-.4477153-1-1-1z"/><path id="Shape" d="m38 51h-4c-.5522847 0-1 .4477153-1 1s.4477153 1 1 1h4c.5522847 0 1-.4477153 1-1s-.4477153-1-1-1z"/><path id="Shape" d="m44 54h-4c-.5522847 0-1 .4477153-1 1s.4477153 1 1 1h4c.5522847 0 1-.4477153 1-1s-.4477153-1-1-1z"/><path id="Shape" d="m51 52c0-.5522847-.4477153-1-1-1h-4c-.5522847 0-1 .4477153-1 1s.4477153 1 1 1h4c.5522847 0 1-.4477153 1-1z"/><path id="Shape" d="m55 54h-4c-.5522847 0-1 .4477153-1 1s.4477153 1 1 1h4c.5522847 0 1-.4477153 1-1s-.4477153-1-1-1z"/><path id="Shape" d="m5 50h4c.55228475 0 1-.4477153 1-1s-.44771525-1-1-1h-4c-.55228475 0-1 .4477153-1 1s.44771525 1 1 1z"/><path id="Shape" d="m17 50h4c.5522847 0 1-.4477153 1-1s-.4477153-1-1-1h-4c-.5522847 0-1 .4477153-1 1s.4477153 1 1 1z"/><path id="Shape" d="m40 50h4c.5522847 0 1-.4477153 1-1s-.4477153-1-1-1h-4c-.5522847 0-1 .4477153-1 1s.4477153 1 1 1z"/><path id="Shape" d="m55 48h-4c-.5522847 0-1 .4477153-1 1s.4477153 1 1 1h4c.5522847 0 1-.4477153 1-1s-.4477153-1-1-1z"/></g></g></svg>