<svg id="Layer_1" fill="#FFFFFF" enable-background="new 0 0 450 450" height="512" viewBox="0 0 450 450" width="512" xmlns="http://www.w3.org/2000/svg"><g><g><path d="m167.32 395.13c-.48 0-.97-.07-1.46-.22-2.64-.81-4.13-3.6-3.32-6.24 4.85-15.89 4.79-33.36-.15-49.2-.82-2.64.65-5.44 3.28-6.26 2.64-.82 5.44.65 6.26 3.29 5.53 17.74 5.59 37.31.16 55.1-.64 2.14-2.62 3.53-4.77 3.53zm115.88 0c-2.14 0-4.12-1.39-4.78-3.54-5.43-17.79-5.37-37.36.16-55.1.82-2.64 3.63-4.1 6.26-3.29 2.64.82 4.11 3.63 3.29 6.26-4.94 15.84-4.99 33.32-.15 49.2.81 2.64-.68 5.44-3.32 6.24-.49.16-.98.23-1.46.23z"/></g><g><path d="m419.66 342.98h-388.8c-14.67 0-26.6-11.93-26.6-26.6v-241.77c0-14.67 11.93-26.6 26.6-26.6h165.04c2.76 0 5 2.24 5 5s-2.24 5-5 5h-165.04c-9.15 0-16.6 7.45-16.6 16.6v241.77c0 9.15 7.45 16.6 16.6 16.6h388.8c9.15 0 16.6-7.45 16.6-16.6v-241.77c0-9.15-7.45-16.6-16.6-16.6h-165.04c-2.76 0-5-2.24-5-5s2.24-5 5-5h165.04c14.67 0 26.6 11.93 26.6 26.6v241.77c0 14.67-11.93 26.6-26.6 26.6z"/></g><g><path d="m300.86 422.9h-151.2c-10.41 0-18.89-8.47-18.89-18.89v-10.03c0-4.88 3.97-8.86 8.86-8.86h171.26c4.88 0 8.86 3.97 8.86 8.86v10.03c0 10.42-8.48 18.89-18.89 18.89zm-160.09-27.77v8.89c0 4.9 3.99 8.89 8.89 8.89h151.2c4.9 0 8.89-3.99 8.89-8.89v-8.89z"/></g><g><path d="m441.26 286.36h-432c-2.76 0-5-2.24-5-5s2.24-5 5-5h432c2.76 0 5 2.24 5 5s-2.24 5-5 5z"/></g><g><path d="m121.63 314.67h-112.37c-2.76 0-5-2.24-5-5s2.24-5 5-5h112.37c2.76 0 5 2.24 5 5s-2.24 5-5 5z"/></g><g><path d="m441.26 314.67h-112.37c-2.76 0-5-2.24-5-5s2.24-5 5-5h112.37c2.76 0 5 2.24 5 5s-2.24 5-5 5z"/></g><g><path d="m409.17 286.36c-2.76 0-5-2.24-5-5v-191.25h-153.8c-2.76 0-5-2.24-5-5s2.24-5 5-5h158.8c2.76 0 5 2.24 5 5v196.25c0 2.76-2.24 5-5 5zm-367.82 0c-2.76 0-5-2.24-5-5v-196.25c0-2.76 2.24-5 5-5h158.8c2.76 0 5 2.24 5 5s-2.24 5-5 5h-153.8v191.25c0 2.76-2.24 5-5 5z"/></g><g><path d="m189.3 324.74c-8.31 0-15.07-6.76-15.07-15.07s6.76-15.07 15.07-15.07 15.07 6.76 15.07 15.07-6.76 15.07-15.07 15.07zm0-20.14c-2.79 0-5.07 2.27-5.07 5.07s2.27 5.07 5.07 5.07 5.07-2.27 5.07-5.07-2.27-5.07-5.07-5.07z"/></g><g><path d="m225.26 324.74c-8.31 0-15.07-6.76-15.07-15.07s6.76-15.07 15.07-15.07 15.07 6.76 15.07 15.07-6.76 15.07-15.07 15.07zm0-20.14c-2.79 0-5.07 2.27-5.07 5.07s2.27 5.07 5.07 5.07c2.79 0 5.07-2.27 5.07-5.07s-2.28-5.07-5.07-5.07z"/></g><g><path d="m261.22 324.74c-8.31 0-15.07-6.76-15.07-15.07s6.76-15.07 15.07-15.07 15.07 6.76 15.07 15.07-6.76 15.07-15.07 15.07zm0-20.14c-2.79 0-5.07 2.27-5.07 5.07s2.27 5.07 5.07 5.07 5.07-2.27 5.07-5.07-2.28-5.07-5.07-5.07z"/></g><g><path d="m225.26 255.51c-42.27 0-82.01-16.46-111.9-46.35-1.95-1.95-1.95-5.12 0-7.07s5.12-1.95 7.07 0c28 28 65.23 43.42 104.83 43.42s76.83-15.42 104.83-43.42c1.95-1.95 5.12-1.95 7.07 0s1.95 5.12 0 7.07c-29.89 29.89-69.63 46.35-111.9 46.35z"/></g><g><path d="m225.26 196.48c-26.5 0-51.42-10.32-70.16-29.06-1.95-1.95-1.95-5.12 0-7.07s5.12-1.95 7.07 0c16.85 16.85 39.26 26.13 63.09 26.13s46.23-9.28 63.09-26.13c1.95-1.95 5.12-1.95 7.07 0s1.95 5.12 0 7.07c-18.74 18.74-43.66 29.06-70.16 29.06z"/></g><g><path d="m225.26 137.45c-10.74 0-20.83-4.18-28.42-11.77-1.95-1.95-1.95-5.12 0-7.07s5.12-1.95 7.07 0c5.7 5.7 13.28 8.84 21.35 8.84 8.06 0 15.65-3.14 21.35-8.84 1.95-1.95 5.12-1.95 7.07 0s1.95 5.12 0 7.07c-7.59 7.59-17.68 11.77-28.42 11.77z"/></g><g><path d="m225.26 102.34c-20.34 0-36.88-16.54-36.88-36.88s16.54-36.88 36.88-36.88 36.88 16.54 36.88 36.88-16.54 36.88-36.88 36.88zm0-63.76c-14.82 0-26.88 12.06-26.88 26.88s12.06 26.88 26.88 26.88 26.88-12.06 26.88-26.88-12.06-26.88-26.88-26.88z"/></g></g></svg>