<svg fill="#ffffff" id="Layer_1" height="512" viewBox="0 0 64 64" width="512" xmlns="http://www.w3.org/2000/svg"><path d="m61 2h-58c-.55 0-1 .45-1 1v58c0 .55.45 1 1 1h58c.55 0 1-.45 1-1v-58c0-.55-.45-1-1-1zm-57 24.72 5.68.83 2.05 6.54-.57 4.53-7.16-2.68zm0 11.36 7.45 2.79 2.97 2.97-10.42.38zm33.06 14.98c-3.2-.2-5.96-.58-8.63-.95-.4-.06-.79-.11-1.19-.16l2.25-5.08 7.2-1.75 8.01 8.01c-2.58.11-5.13.1-7.64-.06zm5.94 3.95c0 .55-.45 1-1 1s-1-.45-1-1 .45-1 1-1 1 .45 1 1zm-10 0c0 .55-.45 1-1 1s-1-.45-1-1 .45-1 1-1 1 .45 1 1zm-7.82-5.33c-2.19-.27-4.46-.49-7-.56l.23-5.27 8.91 1.01-2.14 4.83zm4.79-6.98.96-7.1 5.35-3.56 2.44.14-2.52 9.01zm8.15-.98 2.64-9.43 7.82.46c-.5 4.01-1.28 9.95-1.51 11.65l-3.92 2.35zm3.19-11.39 2.28-8.14c1.94.52 3.9.81 5.87.87l2.2 7.88zm-2.04-.12-2.49-.15c-.44-1.6-1.57-5.64-2.54-8.72 2.47-.27 4.96-.14 7.41.38zm-4.42.38-4.2 2.8-2.44-10.59.71-.25c1.09-.38 2.2-.67 3.32-.89.98 3.08 2.15 7.29 2.61 8.94zm-5.86 4.48-.69 5.1-3.32-6.43-.95-9.49 2.28-.79zm-1.55 7.79-8.95-1.01.37-8.47 4.45 1.46zm-9.21-11.79c-.1-.03-.21-.05-.31-.05h-4.42l-1.62-5.16c.92.1 1.84.17 2.75.17 2.51 0 5-.4 7.46-1.15l.77 7.71zm-1.36 1.95-.35 8.1-3.46-3.46.58-4.64zm-12.87 11.21 12.4-.45-.23 5.32c-1.02 0-2.08.02-3.22.07-2.94.14-5.95.48-8.95 1v-5.93zm56 13.79h-56v-5.82c3.04-.53 6.08-.88 9.05-1.03 6.22-.29 10.54.3 15.11.93.78.11 1.57.21 2.37.32-.91.52-1.53 1.48-1.53 2.6 0 1.65 1.35 3 3 3s3-1.35 3-3c0-.87-.38-1.64-.97-2.19.93.09 1.89.18 2.9.24.9.06 1.8.09 2.71.11-.4.51-.65 1.14-.65 1.84 0 1.65 1.35 3 3 3s3-1.35 3-3c0-.71-.26-1.35-.67-1.86 1.9-.07 3.82-.21 5.75-.42-.66.55-1.08 1.37-1.08 2.29 0 1.65 1.35 3 3 3s3-1.35 3-3c0-1.19-.7-2.21-1.71-2.7 2.22-.33 4.46-.76 6.71-1.27v6.97zm-9-3c0-.55.45-1 1-1s1 .45 1 1-.45 1-1 1-1-.45-1-1zm9-6.02c-4.26 1-8.48 1.65-12.63 1.97l-2.75-2.75 3.64-2.18 11.75.59v2.38zm0-4.38-10.87-.54c.17-1.26.46-3.47.76-5.8l10.11 2.53v3.82zm0-5.88-9.85-2.46c.15-1.2.3-2.36.43-3.4l2.36.14s.04 0 .06 0c.12 0 .24-.02.36-.07l6.64-2.56v8.34zm0-10.49-6.33 2.44-2.13-7.64c1.75-.09 3.5-.36 5.24-.82l3.23-.85v6.88zm0-8.94-3.74.98c-4.15 1.1-8.39 1.05-12.5-.12-5.11-1.44-10.47-1.28-15.5.48l-3.26 1.13v-1.77h-2v2h1.34l-1.89.66c-3.69 1.28-7.47 1.65-11.25 1.1l-7.21-1.06v-11.92c2.33-.71 4.63-.97 6.84-.72 2.5.28 4.13 1.07 5.79 1.93h-1.63v2h2v-1.81c1.93 1 3.95 2.02 7.17 2.13h.53c2.5 0 4.48-.61 6.3-1.47v1.14h2v-2h-.36c.69-.4 1.37-.81 2.06-1.24 1.92-1.19 3.9-2.42 6.5-3.36 5.39-1.96 11.72-1.9 18.81.12v11.76zm0-13.83c-7.28-1.99-13.83-1.99-19.49.06-2.8 1.01-4.96 2.36-6.87 3.54-2.93 1.82-5.45 3.38-9.4 3.26-2.82-.1-4.56-1-6.41-1.96-1.85-.95-3.75-1.94-6.76-2.28-2.3-.26-4.67-.05-7.06.6v-6.7h55.99v3.45z"/><path d="m25 57c0-1.65-1.35-3-3-3s-3 1.35-3 3 1.35 3 3 3 3-1.35 3-3zm-3 1c-.55 0-1-.45-1-1s.45-1 1-1 1 .45 1 1-.45 1-1 1z"/><path d="m15 57c0-1.65-1.35-3-3-3s-3 1.35-3 3 1.35 3 3 3 3-1.35 3-3zm-3 1c-.55 0-1-.45-1-1s.45-1 1-1 1 .45 1 1-.45 1-1 1z"/><path d="m7 14h2v2h-2z"/><path d="m7 22h2v2h-2z"/><path d="m11 18h2v2h-2z"/><path d="m15 22h2v2h-2z"/><path d="m19 18h2v2h-2z"/><path d="m27 18h2v2h-2z"/><path d="m35 18h2v2h-2z"/><path d="m39 14h2v2h-2z"/><path d="m43 10h2v2h-2z"/><path d="m43 18h2v2h-2z"/><path d="m47 14h2v2h-2z"/><path d="m51 10h2v2h-2z"/><path d="m51 18h2v2h-2z"/><path d="m55 14h2v2h-2z"/></svg>