<?xml version="1.0"?>
<svg fill="#ffffff" xmlns="http://www.w3.org/2000/svg" viewBox="0 0 64 64" width="512" height="512"><g id="Eye_target" data-name="Eye target"><path d="M38,32a6,6,0,1,0-6,6A6.0066,6.0066,0,0,0,38,32ZM28,32a4,4,0,1,1,4,4A4.0039,4.0039,0,0,1,28,32Z"/><path d="M56,6a3,3,0,1,0-3,3A3.0033,3.0033,0,0,0,56,6ZM52,6a1,1,0,1,1,1,1A1.0006,1.0006,0,0,1,52,6Z"/><path d="M35,6a3,3,0,1,0-3,3A3.0033,3.0033,0,0,0,35,6ZM31,6a1,1,0,1,1,1,1A1.0006,1.0006,0,0,1,31,6Z"/><path d="M14,6a3,3,0,1,0-3,3A3.0033,3.0033,0,0,0,14,6ZM10,6a1,1,0,1,1,1,1A1.0006,1.0006,0,0,1,10,6Z"/><path d="M54,48.07V45a1,1,0,0,0-1-1H33V41.944c9.2593-.5807,16.4517-8.93,16.7637-9.2985a.999.999,0,0,0,0-1.291c-.312-.3686-7.5044-8.7178-16.7637-9.2985V20H53a1,1,0,0,0,1-1V15.93a8,8,0,1,0-2,0V18H33V15.93a8,8,0,1,0-2,0V18H12V15.93a8,8,0,1,0-2,0V19a1,1,0,0,0,1,1H31v2.056c-9.2593.5807-16.4517,8.93-16.7637,9.2985a.999.999,0,0,0,0,1.291c.312.3686,7.5044,8.7178,16.7637,9.2985V44H11a1,1,0,0,0-1,1V48.07a8,8,0,1,0,2,0V46H31V48.07a8,8,0,1,0,2,0V46H52V48.07a8,8,0,1,0,2,0ZM47,8a6,6,0,1,1,10.6631,3.7678,7.0341,7.0341,0,0,0-9.3262,0A5.9686,5.9686,0,0,1,47,8Zm9.1432,5.1012a6.0789,6.0789,0,0,1-6.2864,0A5.1382,5.1382,0,0,1,56.1432,13.1012ZM26,8a6,6,0,1,1,10.6631,3.7678,7.0341,7.0341,0,0,0-9.3262,0A5.9686,5.9686,0,0,1,26,8Zm9.1432,5.1012a6.0789,6.0789,0,0,1-6.2864,0A5.1382,5.1382,0,0,1,35.1432,13.1012ZM5,8a6,6,0,1,1,10.6631,3.7678A7.1819,7.1819,0,0,0,11,10a7.1819,7.1819,0,0,0-4.6631,1.7678A5.9686,5.9686,0,0,1,5,8Zm9.1432,5.1012a6.0789,6.0789,0,0,1-6.2864,0A5.1382,5.1382,0,0,1,14.1432,13.1012ZM16.3564,31.999C18.2744,29.9912,24.6191,24,32,24c7.3662,0,13.7227,5.9932,15.6436,8.001C45.7256,34.0088,39.3809,40,32,40,24.6338,40,18.2773,34.0068,16.3564,31.999ZM11,61.9769a5.8811,5.8811,0,0,1-3.1432-.8757,5.1382,5.1382,0,0,1,6.2864,0A5.8918,5.8918,0,0,1,11,61.9769ZM17,56a5.9686,5.9686,0,0,1-1.3369,3.7678A7.1819,7.1819,0,0,0,11,58a7.1819,7.1819,0,0,0-4.6631,1.7678A5.9979,5.9979,0,1,1,17,56Zm15,5.9769a5.8811,5.8811,0,0,1-3.1432-.8757,5.1382,5.1382,0,0,1,6.2864,0A5.8918,5.8918,0,0,1,32,61.9769ZM38,56a5.9686,5.9686,0,0,1-1.3369,3.7678,7.0341,7.0341,0,0,0-9.3262,0A5.9979,5.9979,0,1,1,38,56Zm15,5.9769a5.8811,5.8811,0,0,1-3.1432-.8757,5.1382,5.1382,0,0,1,6.2864,0A5.8918,5.8918,0,0,1,53,61.9769Zm4.6631-2.2091a7.0341,7.0341,0,0,0-9.3262,0,6,6,0,1,1,9.3262,0Z"/><path d="M53,51a3,3,0,1,0,3,3A3.0033,3.0033,0,0,0,53,51Zm0,4a1,1,0,1,1,1-1A1.0006,1.0006,0,0,1,53,55Z"/><path d="M29,54a3,3,0,1,0,3-3A3.0033,3.0033,0,0,0,29,54Zm4,0a1,1,0,1,1-1-1A1.0006,1.0006,0,0,1,33,54Z"/><path d="M8,54a3,3,0,1,0,3-3A3.0033,3.0033,0,0,0,8,54Zm4,0a1,1,0,1,1-1-1A1.0006,1.0006,0,0,1,12,54Z"/></g></svg>
